:SAMPLES-PER-SECOND 30
:FULLY-SPECIFIED
:DEGREES
1007
root  -41.4146 39.8327 29.8394 -178.286 -15.9005 177.368
RightUpLeg  -9.63027 -20.2447 -10.2504
RightLeg  17.4347 0.467855 1.46685
RightFoot  -4.63504 -0.312497 4.79144
RightToes  -1.33073e-015 0 -3.6325e-017
Spine  24.507 -2.55714 7.95791
Spine1  8.794 -0.980106 -0.783413
HEad  -13.0258 -15.6437 5.73245
LeftShoulder1  0.715532 1.31986 -26.5914
LeftArm  -12.8415 3.38108 -36.9286
LeftForeArm  42.0976 -77.4941 -60.5628
LeftHand  -0.1394 1.14979 3.69529
RightShoulder  -0.0670118 -3.69415 24.5445
RightArm  -12.558 2.7337 39.7941
RightForeArm  73.7303 78.5471 100.445
RightHand  -0.237454 3.00498 -3.51068
LeftUpLeg  -19.8723 1.52466 4.92393
LeftLeg  20.7071 1.73381 1.03514
LeftFoot  -3.87813 0.229816 -3.13415
LeftToes  -1.93726e-010 2.42366e-011 2.16268e-013
1008
root  -41.0883 40.015 29.9299 -178.13 -15.1413 176.692
RightUpLeg  -9.06617 -17.9369 -10.5787
RightLeg  15.4425 -1.117 1.64123
RightFoot  -3.66038 -0.32158 4.41534
RightToes  -1.33073e-015 0 -3.6325e-017
Spine  24.1036 -2.51705 7.67093
Spine1  8.88921 -1.01852 -0.819859
HEad  -12.3539 -15.5212 5.0741
LeftShoulder1  0.728414 1.27505 -26.5109
LeftArm  -11.9486 2.69719 -38.0274
LeftForeArm  38.2997 -76.9911 -56.748
LeftHand  -0.150386 1.13362 3.99541
RightShoulder  -0.156367 -3.98171 24.7141
RightArm  -12.7528 1.96554 39.1045
RightForeArm  72.037 78.5931 98.8854
RightHand  -0.250735 3.23467 -3.62198
LeftUpLeg  -18.7661 3.5183 1.37072
LeftLeg  21.7916 0.451858 0.528671
LeftFoot  -5.58446 0.204869 -3.50362
LeftToes  -1.93726e-010 2.42366e-011 2.16268e-013
1009
root  -40.8576 40.1469 29.9443 -177.978 -14.1253 176.332
RightUpLeg  -8.69877 -16.0625 -10.5527
RightLeg  13.7641 -2.05114 1.73807
RightFoot  -2.8785 -0.325892 4.13549
RightToes  -1.33073e-015 0 -3.6325e-017
Spine  23.3173 -2.50591 7.79855
Spine1  8.85483 -0.92195 -1.24576
HEad  -11.7031 -15.2005 4.31607
LeftShoulder1  0.747436 1.23145 -26.7234
LeftArm  -10.8128 2.50811 -38.0784
LeftForeArm  36.6213 -76.7121 -54.8438
LeftHand  -0.143409 0.889475 3.62018
RightShoulder  -0.146006 -3.94993 24.6158
RightArm  -13.4797 0.391441 39.0504
RightForeArm  71.6547 78.6279 98.1585
RightHand  -0.20455 3.47319 -2.91239
LeftUpLeg  -16.9602 3.68499 -1.6145
LeftLeg  21.1958 -0.415176 0.149639
LeftFoot  -7.38944 0.264699 -6.35702
LeftToes  -1.93726e-010 2.42366e-011 2.16268e-013
1010
root  -40.642 40.1933 29.8865 -178.157 -13.3867 176.447
RightUpLeg  -8.25368 -15.3048 -10.1304
RightLeg  12.9152 -2.1047 1.95433
RightFoot  -2.76263 -0.31214 3.90782
RightToes  -1.33073e-015 0 -3.6325e-017
Spine  22.3915 -2.45046 7.33612
Spine1  8.79573 -1.15256 -0.69182
HEad  -10.6856 -15.2852 3.75049
LeftShoulder1  0.693965 1.40407 -26.9376
LeftArm  -9.84083 2.735 -37.955
LeftForeArm  35.6353 -76.5208 -53.5864
LeftHand  -0.137249 0.986148 3.52465
RightShoulder  -0.0975304 -3.79168 24.5997
RightArm  -13.7684 -1.40861 38.868
RightForeArm  73.3311 78.6271 99.1363
RightHand  -0.154492 2.92109 -2.38483
LeftUpLeg  -14.7157 3.04613 -3.70269
LeftLeg  19.8567 -2.56169 -0.694434
LeftFoot  -9.14136 0.219034 -8.45628
LeftToes  -1.93726e-010 2.42366e-011 2.16268e-013
1011
root  -40.4605 40.1574 29.8093 -178.588 -12.0013 177.155
RightUpLeg  -8.29398 -14.7191 -9.00092
RightLeg  13.0115 -1.4836 2.06812
RightFoot  -3.07121 -0.290009 3.71841
RightToes  -1.33073e-015 0 -3.6325e-017
Spine  21.3886 -2.06307 6.77376
Spine1  9.01424 -1.19074 0.46008
HEad  -9.9237 -14.4687 2.91312
LeftShoulder1  0.569024 1.83668 -27.9677
LeftArm  -9.40606 3.03086 -37.6653
LeftForeArm  35.8695 -76.521 -53.4804
LeftHand  -0.131564 1.02196 3.39628
RightShoulder  -0.0497051 -3.64102 23.9706
RightArm  -13.656 -2.41607 38.8976
RightForeArm  70.2067 78.6728 96.5881
RightHand  -0.190537 4.00179 -2.62304
LeftUpLeg  -12.1519 3.18174 -4.74968
LeftLeg  17.7587 -5.13055 -1.51551
LeftFoot  -9.48645 0.166708 -8.07427
LeftToes  -1.93726e-010 2.42366e-011 2.16268e-013
1012
root  -40.2548 40.1479 29.7449 -179.335 -10.4651 177.911
RightUpLeg  -7.94243 -15.427 -7.71189
RightLeg  13.0556 0.679423 2.21844
RightFoot  -3.44224 -0.247519 3.24303
RightToes  -1.33073e-015 0 -3.6325e-017
Spine  20.822 -1.76101 5.75883
Spine1  9.12542 -1.05661 0.515962
HEad  -9.20027 -13.4972 3.12833
LeftShoulder1  0.582449 1.77101 -27.4767
LeftArm  -9.475 4.17482 -38.1415
LeftForeArm  37.3665 -76.7109 -54.5063
LeftHand  -0.130366 0.984408 3.34002
RightShoulder  -0.121423 -3.86717 24.8784
RightArm  -13.1631 -2.63555 38.4485
RightForeArm  68.6261 78.7378 94.3525
RightHand  -0.133516 3.15467 -2.04726
LeftUpLeg  -9.97522 2.99986 -5.01732
LeftLeg  15.9726 -5.78302 -1.6108
LeftFoot  -7.33045 -0.0169281 1.84562
LeftToes  -1.93726e-010 2.42366e-011 2.16268e-013
1013
root  -40.0012 40.0738 29.7194 179.916 -8.75628 178.552
RightUpLeg  -8.46496 -18.0812 -6.20267
RightLeg  14.7317 4.96477 2.3944
RightFoot  -4.36451 -0.213229 2.99355
RightToes  -1.33073e-015 0 -3.6325e-017
Spine  20.7989 -1.338 3.3308
Spine1  8.67709 -1.21597 1.27191
HEad  -8.1915 -12.1416 3.63422
LeftShoulder1  0.598361 1.68569 -26.7383
LeftArm  -10.4457 6.31778 -38.6733
LeftForeArm  41.2345 -77.2438 -57.9129
LeftHand  -0.127707 1.02402 3.29268
RightShoulder  -0.148662 -3.94498 25.4987
RightArm  -12.2214 -2.23799 38.5927
RightForeArm  64.7433 78.7921 89.9434
RightHand  -0.0794545 3.04154 -1.33444
LeftUpLeg  -9.14443 2.69588 -4.21287
LeftLeg  15.366 -2.36366 -0.499789
LeftFoot  -5.99052 -0.20762 5.34683
LeftToes  -1.93726e-010 2.42366e-011 2.16268e-013
